<svg width="320" height="255" viewBox="0 0 320 255" fill="none" xmlns="http://www.w3.org/2000/svg">
<g clip-path="url(#clip0_18_342)">
<path d="M244.999 252.116C240.903 247.502 238.414 240.213 239.067 233.117C239.719 226.021 243.761 219.498 249.005 217.991C254.248 216.484 260.224 220.655 261.817 227.482C262.693 214.321 263.703 200.608 268.953 189.399C273.707 179.251 281.94 171.989 290.864 170.689C299.787 169.39 309.182 174.297 314.747 183.685C320.312 193.072 321.675 206.719 317.777 217.497C314.906 225.436 309.616 231.345 304.073 236.152C286.164 251.554 264.683 257.818 243.585 253.79L244.999 252.116Z" fill="#F2F2F2"/>
<path d="M305.923 174.569C298.56 182.562 291.806 191.502 285.757 201.26C276.291 216.477 268.631 233.539 263.044 251.851C262.635 253.187 264.262 253.768 264.666 252.447C273.808 222.687 288.402 196.457 307.113 176.155C307.953 175.243 306.756 173.665 305.923 174.569Z" fill="white"/>
<path d="M103.013 250.863C108.64 244.525 112.058 234.514 111.162 224.767C110.265 215.021 104.714 206.061 97.5123 203.992C90.3109 201.922 82.1017 207.651 79.9144 217.028C78.7106 198.95 77.3235 180.115 70.1127 164.721C63.5835 150.781 52.2749 140.807 40.0188 139.023C27.7628 137.238 14.8588 143.978 7.2151 156.871C-0.428541 169.765 -2.30006 188.51 3.05335 203.313C6.99702 214.218 14.2627 222.333 21.8752 228.936C46.162 249.999 76.2896 258.784 104.957 253.161" fill="#F2F2F2"/>
<path d="M19.3349 144.351C29.4477 155.33 38.7251 167.609 47.0329 181.011C55.342 194.399 62.6573 208.829 68.876 224.1C72.352 232.666 75.4746 241.478 78.2298 250.498C78.7915 252.333 76.5562 253.131 76.0007 251.317C71.1206 235.415 65.0829 220.189 57.9744 205.857C50.9004 191.577 42.8037 178.246 33.7983 166.049C28.7048 159.155 23.3307 152.638 17.7004 146.53C16.5463 145.278 18.1904 143.109 19.3349 144.351L19.3349 144.351Z" fill="white"/>
<path d="M229.701 254.442H95.4482V70.8417C95.4482 31.7794 119.291 0 148.598 0H176.552C205.858 0 229.701 31.7794 229.701 70.8417V254.442Z" fill="#F2F2F2"/>
<path d="M201.747 254.442H95.4483V70.8417C95.419 55.8739 98.9749 41.2844 105.598 29.1974C105.843 28.7538 106.086 28.316 106.337 27.883C109.541 22.2823 113.354 17.3499 117.649 13.2486C117.892 13.0133 118.135 12.782 118.383 12.5508C121.977 9.23542 125.865 6.52516 129.959 4.48171C130.202 4.35891 130.449 4.23587 130.697 4.11785C134.399 2.35689 138.237 1.15065 142.139 0.521382C142.381 0.477332 142.629 0.442863 142.878 0.408393C146.68 -0.133568 150.516 -0.133568 154.319 0.408393C154.566 0.442863 154.815 0.477328 155.059 0.521853C158.961 1.15116 162.798 2.35726 166.499 4.11787C166.746 4.23589 166.994 4.35893 167.238 4.48197C171.281 6.49964 175.123 9.16946 178.679 12.4318C178.926 12.6581 179.173 12.8893 179.417 13.1205C181.825 15.4114 184.086 17.9635 186.179 20.7509C187.857 22.9866 189.42 25.3698 190.859 27.8844C191.109 28.316 191.353 28.7539 191.597 29.1967C198.22 41.2839 201.776 55.8736 201.747 70.8417V254.442Z" fill="#CCCCCC"/>
<path d="M193.103 172.324C196.354 172.324 198.989 168.812 198.989 164.48C198.989 160.148 196.354 156.636 193.103 156.636C189.853 156.636 187.218 160.148 187.218 164.48C187.218 168.812 189.853 172.324 193.103 172.324Z" fill="#236969"/>
<path d="M218.703 248.943H214.194L212.048 225.76L218.704 225.76L218.703 248.943Z" fill="#FFB8B8"/>
<path d="M210.973 247.225H219.669V254.524H205.497C205.497 253.565 205.639 252.616 205.914 251.731C206.189 250.845 206.592 250.041 207.101 249.363C207.609 248.685 208.213 248.147 208.877 247.781C209.541 247.414 210.254 247.225 210.973 247.225Z" fill="#2F2E41"/>
<path d="M241.14 248.943H236.63L234.485 225.76L241.141 225.76L241.14 248.943Z" fill="#FFB8B8"/>
<path d="M233.409 247.225H242.106V254.524H227.934C227.934 253.565 228.075 252.616 228.351 251.731C228.626 250.845 229.029 250.041 229.538 249.363C230.046 248.685 230.65 248.147 231.314 247.781C231.978 247.414 232.69 247.225 233.409 247.225Z" fill="#2F2E41"/>
<path d="M196.082 166.034C195.757 165.397 195.542 164.673 195.45 163.913C195.358 163.153 195.393 162.375 195.551 161.634C195.709 160.894 195.987 160.209 196.366 159.627C196.744 159.045 197.213 158.581 197.741 158.267L213.07 101.953L220.613 107.44L203.11 161.255C203.447 162.471 203.437 163.81 203.083 165.017C202.729 166.225 202.055 167.217 201.189 167.806C200.322 168.395 199.324 168.54 198.383 168.213C197.441 167.887 196.623 167.111 196.082 166.034Z" fill="#FFB8B8"/>
<path d="M238.836 176.616C238.335 176.233 237.903 175.708 237.571 175.078C237.238 174.449 237.013 173.73 236.912 172.972C236.81 172.214 236.835 171.435 236.984 170.691C237.132 169.947 237.401 169.256 237.772 168.666L233.024 109.095L241.608 109.618L243.581 168.213C244.284 169.109 244.716 170.318 244.794 171.61C244.873 172.902 244.594 174.188 244.009 175.223C243.424 176.259 242.574 176.973 241.621 177.23C240.668 177.486 239.677 177.268 238.836 176.616Z" fill="#FFB8B8"/>
<path d="M225.142 91.5224C230.132 91.5224 234.176 86.1314 234.176 79.4812C234.176 72.8311 230.132 67.4401 225.142 67.4401C220.153 67.4401 216.108 72.8311 216.108 79.4812C216.108 86.1314 220.153 91.5224 225.142 91.5224Z" fill="#FFB8B8"/>
<path d="M238.779 163.068H211.543L211.576 162.785C211.625 162.363 216.43 120.408 212.886 106.682C212.53 105.334 212.562 103.857 212.974 102.537C213.386 101.217 214.15 100.147 215.118 99.5328H215.118C220.184 96.3534 229.907 92.4383 238.114 101.94C239.322 103.361 240.265 105.137 240.869 107.128C241.473 109.118 241.721 111.269 241.594 113.41L238.779 163.068Z" fill="#236969"/>
<path d="M216.774 126.608L204.512 123.293L210.26 105.139C210.604 103.38 211.457 101.876 212.632 100.955C213.807 100.034 215.209 99.7714 216.529 100.226C217.849 100.68 218.98 101.813 219.673 103.377C220.367 104.942 220.567 106.809 220.23 108.569L216.774 126.608Z" fill="#236969"/>
<path d="M232.478 132.765L231.741 110.242C231.182 106.008 233.001 102.005 235.797 101.351C238.595 100.699 241.326 103.636 241.888 107.901L244.658 128.946L232.478 132.765Z" fill="#236969"/>
<path d="M237.873 160.371C242.255 182.617 242.733 210.901 241.551 241.753L235.666 240.773L224.999 181.942L219.114 241.753L212.493 241.263C210.515 208.892 208.59 181.101 211.758 162.822L237.873 160.371Z" fill="#2F2E41"/>
<path d="M231.095 88.7869C229.41 91.1798 226.28 89.8953 226.06 86.6263C226.043 86.3725 226.044 86.1171 226.064 85.8636C226.177 84.4156 226.805 83.101 226.655 81.5721C226.62 81.1916 226.514 80.829 226.346 80.5186C225.003 78.1216 221.85 81.5908 220.582 79.4208C219.805 78.0903 220.719 75.9953 220.122 74.5082C219.335 72.5454 217.004 73.5137 215.542 72.4388C213.915 71.2428 214.012 67.9161 215.083 65.8926C216.389 63.4248 218.679 62.1081 220.94 61.9183C223.201 61.7285 225.447 62.5432 227.558 63.6398C229.956 64.8857 232.335 66.6075 233.811 69.4187C235.606 72.8373 235.779 77.4333 234.881 81.4307C234.335 83.8624 232.471 86.833 231.095 88.7869Z" fill="#2F2E41"/>
<path d="M308.959 254.757H37.4024C37.2864 254.757 37.1754 254.695 37.0935 254.586C37.0117 254.476 36.9657 254.328 36.9657 254.174C36.9657 254.019 37.0117 253.871 37.0935 253.761C37.1754 253.652 37.2864 253.59 37.4024 253.59H308.959C309.075 253.59 309.186 253.652 309.268 253.761C309.35 253.871 309.396 254.019 309.396 254.174C309.396 254.328 309.35 254.476 309.268 254.586C309.186 254.695 309.075 254.757 308.959 254.757Z" fill="#3F3D56"/>
<path d="M172.506 201.249H124.69C124.06 201.254 123.455 200.925 123.006 200.336C122.558 199.746 122.304 198.943 122.299 198.104V55.8474C122.304 55.0081 122.558 54.2056 123.006 53.616C123.455 53.0263 124.06 52.6978 124.69 52.7023H172.506C173.135 52.6978 173.741 53.0263 174.189 53.616C174.637 54.2056 174.892 55.0081 174.897 55.8474V198.104C174.892 198.943 174.637 199.746 174.189 200.336C173.741 200.925 173.135 201.254 172.506 201.249Z" fill="white"/>
<path d="M174.897 98.7321H122.299V99.7126H174.897V98.7321Z" fill="#CCCCCC"/>
<path d="M175.08 154.675H122.483V155.656H175.08V154.675Z" fill="#CCCCCC"/>
<path d="M139.586 52.7023H138.851V201.74H139.586V52.7023Z" fill="#CCCCCC"/>
<path d="M157.977 52.7023H157.241V201.74H157.977V52.7023Z" fill="#CCCCCC"/>
</g>
<defs>
<clipPath id="clip0_18_342">
<rect width="320" height="255" fill="white"/>
</clipPath>
</defs>
</svg>
