<svg width="29" height="30" viewBox="0 0 29 30" fill="none" xmlns="http://www.w3.org/2000/svg">
<path d="M25.9782 0H2.88647C1.29891 0 0.0144323 1.6875 0.0144323 3.75L0 26.25C0 28.3125 1.29891 30 2.88647 30H25.9782C27.5658 30 28.8647 28.3125 28.8647 26.25V3.75C28.8647 1.6875 27.5658 0 25.9782 0ZM25.4009 7.96875L15.1973 16.2563C14.7354 16.6313 14.1293 16.6313 13.6674 16.2563L3.46376 7.96875C3.31904 7.86321 3.19232 7.72062 3.09125 7.5496C2.99018 7.37859 2.91687 7.18271 2.87575 6.97382C2.83464 6.76493 2.82658 6.54738 2.85206 6.33433C2.87753 6.12127 2.93602 5.91715 3.02398 5.73432C3.11194 5.55148 3.22754 5.39373 3.36378 5.27062C3.50003 5.1475 3.65408 5.06158 3.81663 5.01806C3.97917 4.97454 4.14682 4.97431 4.30943 5.0174C4.47204 5.06049 4.62623 5.146 4.76267 5.26875L14.4323 13.125L24.102 5.26875C24.2384 5.146 24.3926 5.06049 24.5552 5.0174C24.7179 4.97431 24.8855 4.97454 25.0481 5.01806C25.2106 5.06158 25.3646 5.1475 25.5009 5.27062C25.6371 5.39373 25.7527 5.55148 25.8407 5.73432C25.9287 5.91715 25.9871 6.12127 26.0126 6.33433C26.0381 6.54738 26.03 6.76493 25.9889 6.97382C25.9478 7.18271 25.8745 7.37859 25.7734 7.5496C25.6724 7.72062 25.5456 7.86321 25.4009 7.96875Z" fill="#22C7A9"/>
</svg>
