<svg width="29" height="23" viewBox="0 0 29 23" fill="none" xmlns="http://www.w3.org/2000/svg">
<path d="M8.54104 18.4C6.97518 18.4 5.70826 19.435 5.70826 20.7C5.70826 21.965 6.97518 23 8.54104 23C10.1069 23 11.3881 21.965 11.3881 20.7C11.3881 19.435 10.1069 18.4 8.54104 18.4ZM0 0V2.3H2.84701L7.97164 11.0285L6.0499 13.846C5.82214 14.168 5.69403 14.5475 5.69403 14.95C5.69403 16.215 6.97518 17.25 8.54104 17.25H25.6231V14.95H9.13891C8.93962 14.95 8.78304 14.8235 8.78304 14.6625L8.82574 14.5245L10.1069 12.65H20.712C21.7797 12.65 22.7192 12.1785 23.2032 11.4655L28.2993 4.002C28.4132 3.841 28.4701 3.6455 28.4701 3.45C28.4701 2.8175 27.8296 2.3 27.0466 2.3H5.99296L4.65487 0H0ZM22.7761 18.4C21.2103 18.4 19.9433 19.435 19.9433 20.7C19.9433 21.965 21.2103 23 22.7761 23C24.342 23 25.6231 21.965 25.6231 20.7C25.6231 19.435 24.342 18.4 22.7761 18.4Z" fill="white"/>
</svg>
