<svg width="21" height="16" viewBox="0 0 21 16" fill="none" xmlns="http://www.w3.org/2000/svg">
<path d="M13.7813 7.95738C13.7813 8.91666 13.4355 9.83666 12.8202 10.515C12.2048 11.1933 11.3702 11.5744 10.5 11.5744C9.62976 11.5744 8.79516 11.1933 8.17981 10.515C7.56446 9.83666 7.21875 8.91666 7.21875 7.95738C7.21875 6.99809 7.56446 6.07809 8.17981 5.39977C8.79516 4.72146 9.62976 4.34038 10.5 4.34038C11.3702 4.34038 12.2048 4.72146 12.8202 5.39977C13.4355 6.07809 13.7813 6.99809 13.7813 7.95738Z" fill="#22C7A9"/>
<path d="M0 7.95739C0 7.95739 3.9375 0 10.5 0C17.0625 0 21 7.95739 21 7.95739C21 7.95739 17.0625 15.9148 10.5 15.9148C3.9375 15.9148 0 7.95739 0 7.95739ZM10.5 13.0212C11.7183 13.0212 12.8868 12.4877 13.7483 11.538C14.6098 10.5884 15.0937 9.30039 15.0937 7.95739C15.0937 6.61439 14.6098 5.32639 13.7483 4.37675C12.8868 3.4271 11.7183 2.8936 10.5 2.8936C9.28166 2.8936 8.11322 3.4271 7.25173 4.37675C6.39023 5.32639 5.90625 6.61439 5.90625 7.95739C5.90625 9.30039 6.39023 10.5884 7.25173 11.538C8.11322 12.4877 9.28166 13.0212 10.5 13.0212Z" fill="#22C7A9"/>
</svg>
