<svg width="40" height="30" viewBox="0 0 40 30" fill="none" xmlns="http://www.w3.org/2000/svg">
<path d="M19.4697 7.78279L6.66719 17.9524V28.9285C6.66719 29.2126 6.78425 29.4852 6.99261 29.6862C7.20096 29.8871 7.48356 30 7.77822 30L15.5596 29.9806C15.8533 29.9792 16.1344 29.8656 16.3416 29.6648C16.5487 29.464 16.665 29.1923 16.665 28.909V22.4992C16.665 22.215 16.7821 21.9424 16.9904 21.7415C17.1988 21.5405 17.4814 21.4276 17.7761 21.4276H22.2202C22.5148 21.4276 22.7974 21.5405 23.0058 21.7415C23.2141 21.9424 23.3312 22.215 23.3312 22.4992V28.9043C23.3307 29.0453 23.3591 29.185 23.4148 29.3154C23.4704 29.4458 23.5522 29.5643 23.6554 29.6642C23.7586 29.7641 23.8812 29.8433 24.0162 29.8974C24.1513 29.9514 24.296 29.9792 24.4422 29.9792L32.2208 30C32.5154 30 32.798 29.8871 33.0064 29.6862C33.2148 29.4852 33.3318 29.2126 33.3318 28.9285V17.9451L20.5321 7.78279C20.3816 7.6658 20.1942 7.60201 20.0009 7.60201C19.8076 7.60201 19.6202 7.6658 19.4697 7.78279ZM39.6924 14.6949L33.8873 10.0799V0.803661C33.8873 0.590517 33.7995 0.386103 33.6433 0.235387C33.487 0.0846713 33.275 0 33.0541 0H29.1655C28.9445 0 28.7325 0.0846713 28.5763 0.235387C28.42 0.386103 28.3322 0.590517 28.3322 0.803661V5.66648L22.1153 0.733341C21.5187 0.259836 20.7701 0.000946542 19.9974 0.000946542C19.2248 0.000946542 18.4761 0.259836 17.8795 0.733341L0.302406 14.6949C0.218029 14.7622 0.14822 14.8448 0.0969688 14.9381C0.0457172 15.0314 0.0140272 15.1335 0.00370954 15.2387C-0.00660814 15.3438 0.00464871 15.4498 0.0368369 15.5507C0.0690251 15.6516 0.121514 15.7454 0.191304 15.8268L1.962 17.9029C2.0316 17.9845 2.11721 18.0521 2.21392 18.1018C2.31064 18.1514 2.41656 18.1822 2.52563 18.1924C2.6347 18.2025 2.74477 18.1918 2.84954 18.1609C2.95432 18.1299 3.05173 18.0794 3.13622 18.0121L19.4697 5.03695C19.6202 4.91996 19.8076 4.85617 20.0009 4.85617C20.1942 4.85617 20.3816 4.91996 20.5321 5.03695L36.8663 18.0121C36.9506 18.0794 37.0479 18.13 37.1525 18.161C37.2571 18.1921 37.3671 18.2029 37.476 18.193C37.585 18.183 37.6909 18.1525 37.7876 18.103C37.8844 18.0536 37.97 17.9863 38.0398 17.9049L39.8105 15.8288C39.8802 15.747 39.9325 15.6527 39.9643 15.5513C39.9961 15.45 40.0068 15.3436 39.9958 15.2382C39.9849 15.1328 39.9524 15.0306 39.9003 14.9374C39.8483 14.8441 39.7776 14.7617 39.6924 14.6949Z" fill="#22C7A9"/>
</svg>
