<svg width="29" height="12" viewBox="0 0 29 12" fill="none" xmlns="http://www.w3.org/2000/svg">
<path d="M3.94525 11.3127C6.6875 11.3127 8.31641 9.16823 8.31641 5.5368C8.31641 4.16941 8.05489 3.01872 7.55426 2.12954C6.82947 0.747207 5.58164 0 4.00503 0C1.6588 0 0 1.57661 0 3.78834C0 5.86557 1.49441 7.37493 3.54923 7.37493C4.81201 7.37493 5.83569 6.78464 6.34379 5.76096H6.3662C6.3662 5.76096 6.39609 5.76096 6.40356 5.76096C6.41851 5.76096 6.47081 5.76096 6.47081 5.76096C6.47081 8.22675 5.5368 9.69874 3.9602 9.69874C3.03366 9.69874 2.31634 9.19064 2.06976 8.37619H0.149441C0.47074 10.1471 1.97263 11.3127 3.94525 11.3127ZM4.0125 5.84316C2.77214 5.84316 1.89043 4.96145 1.89043 3.72856C1.89043 2.52556 2.81697 1.60649 4.01997 1.60649C5.22298 1.60649 6.14951 2.5405 6.14951 3.75845C6.14951 4.96145 5.24539 5.84316 4.0125 5.84316Z" fill="white" fill-opacity="0.85"/>
<path d="M11.4699 11.2081C12.1798 11.2081 12.6655 10.7 12.6655 10.0275C12.6655 9.34756 12.1798 8.84693 11.4699 8.84693C10.7675 8.84693 10.2744 9.34756 10.2744 10.0275C10.2744 10.7 10.7675 11.2081 11.4699 11.2081ZM11.4699 5.60405C12.1798 5.60405 12.6655 5.10342 12.6655 4.43094C12.6655 3.75098 12.1798 3.25035 11.4699 3.25035C10.7675 3.25035 10.2744 3.75098 10.2744 4.43094C10.2744 5.10342 10.7675 5.60405 11.4699 5.60405Z" fill="white" fill-opacity="0.85"/>
<path d="M19.6596 11.0512H21.5052V9.0412H22.9623V7.41229H21.5052V0.268994H18.7854C16.88 3.13827 15.3632 5.5368 14.3918 7.32263V9.0412H19.6596V11.0512ZM16.1776 7.34504C17.4329 5.13331 18.5537 3.36243 19.5849 1.83813H19.6895V7.45712H16.1776V7.34504Z" fill="white" fill-opacity="0.85"/>
<path d="M27.0722 11.0512H29V0.268994H27.0797L24.2627 2.24162V4.09469L26.9452 2.21173H27.0722V11.0512Z" fill="white" fill-opacity="0.85"/>
</svg>
