<svg width="75" height="60" viewBox="0 0 75 60" fill="none" xmlns="http://www.w3.org/2000/svg">
<path d="M22.377 48C18.2745 48 14.9553 50.7 14.9553 54C14.9553 57.3 18.2745 60 22.377 60C26.4794 60 29.836 57.3 29.836 54C29.836 50.7 26.4794 48 22.377 48ZM0 0V6H7.459L20.8852 28.77L15.8504 36.12C15.2536 36.96 14.918 37.95 14.918 39C14.918 42.3 18.2745 45 22.377 45H67.131V39H23.9434C23.4213 39 23.011 38.67 23.011 38.25L23.1229 37.89L26.4794 33H54.2642C57.0613 33 59.5228 31.77 60.7908 29.91L74.1424 10.44C74.4408 10.02 74.59 9.51 74.59 9C74.59 7.35 72.9117 6 70.8605 6H15.7012L12.1955 0H0ZM59.672 48C55.5695 48 52.2503 50.7 52.2503 54C52.2503 57.3 55.5695 60 59.672 60C63.7744 60 67.131 57.3 67.131 54C67.131 50.7 63.7744 48 59.672 48Z" fill="#DFB497"/>
</svg>
