<svg width="151" height="260" viewBox="0 0 151 260" fill="none" xmlns="http://www.w3.org/2000/svg">
<path fill-rule="evenodd" clip-rule="evenodd" d="M73.4395 24.6059C70.7417 21.1152 68.9157 16.8372 69.2209 12.0437C70.1 -1.76779 87.5414 1.27056 90.9342 8.24142C94.3269 15.2123 93.9237 32.8945 89.5389 34.1404C87.7903 34.6372 84.0651 33.4201 80.2738 30.9011L82.6536 49.4595H68.6021L73.4395 24.6059Z" fill="#B28B67"/>
<path fill-rule="evenodd" clip-rule="evenodd" d="M84.7371 9.2524C82.8303 10.4282 81.4733 12.6313 79.8398 15.5212C79.4419 15.3489 79.0086 15.2542 78.5553 15.2542C76.6152 15.2542 75.0424 16.9879 75.0424 19.1265C75.0424 20.2122 75.4477 21.1935 76.1007 21.8966C75.2878 23.1613 74.3769 24.4825 73.3331 25.8457C69.4377 23.2695 66.5404 15.7611 70.2597 8.51269C73.4598 -6.00639 91.5929 3.00544 95.0815 0.556741C95.8441 5.82546 93.3845 10.0737 84.7371 9.2524Z" fill="#191847"/>
<path fill-rule="evenodd" clip-rule="evenodd" d="M68.0363 105.488L96.7724 185.662L116.046 253.443H123.656L94.1916 105.488L68.0363 105.488Z" fill="#997659"/>
<path fill-rule="evenodd" clip-rule="evenodd" d="M62.2498 105.488C61.9438 133.662 57.4813 171.593 56.7683 173.35C56.293 174.52 39.8844 189.409 7.54252 218.016L12.7844 224.199C50.9448 199.673 70.908 185.774 72.6738 182.502C75.3226 177.596 83.9463 132.442 90.8699 105.488H62.2498Z" fill="#B28B67"/>
<path fill-rule="evenodd" clip-rule="evenodd" d="M6.91573 215.982C5.1415 216.686 3.91796 217.349 3.2451 217.973C2.42674 218.73 1.34504 219.984 -1.75432e-06 221.734C0.78331 222.764 7.82306 232.023 21.1193 249.51C23.867 248.195 24.7374 246.679 23.7303 244.962C22.7232 243.244 21.8992 241.806 21.2584 240.646L16.746 222.825C16.6592 222.482 16.335 222.286 16.0219 222.387C16.0165 222.389 16.0112 222.391 16.0059 222.393L13.5199 223.281C11.8063 222.414 10.6073 221.531 9.92292 220.631C9.36689 219.9 8.87118 218.638 8.43577 216.845L8.43578 216.845C8.26869 216.157 7.62411 215.758 6.99608 215.953C6.96902 215.962 6.94221 215.971 6.91573 215.982Z" fill="#E4E4E4"/>
<path fill-rule="evenodd" clip-rule="evenodd" d="M112.93 250.314C112.275 252.241 111.947 253.683 111.947 254.64C111.947 255.804 112.123 257.502 112.475 259.735C113.699 259.735 124.707 259.735 145.497 259.735C146.355 256.608 145.859 254.92 144.01 254.67C142.162 254.421 140.626 254.196 139.403 253.995L124.055 246.452C123.759 246.307 123.413 246.453 123.282 246.779C123.279 246.785 123.277 246.79 123.275 246.796L122.288 249.434C120.577 250.314 119.186 250.754 118.116 250.754C117.247 250.754 116.046 250.367 114.514 249.593L114.514 249.593C113.926 249.296 113.231 249.581 112.962 250.229C112.95 250.257 112.939 250.285 112.93 250.314Z" fill="#E4E4E4"/>
<path fill-rule="evenodd" clip-rule="evenodd" d="M87.357 246.461L123.542 242.132L96.7247 105.488H64.3151L87.357 246.461Z" fill="#69A1AC"/>
<path fill-rule="evenodd" clip-rule="evenodd" d="M15.0273 208.04L38.7625 239.009C63.7623 208.911 78.3373 189.272 82.4874 180.092C86.6374 170.912 90.3682 146.044 93.6795 105.488H57.1922C55.3834 141.168 54.1641 159.838 53.5344 161.498C52.9047 163.158 40.069 178.672 15.0273 208.04Z" fill="#89C5CC"/>
<path fill-rule="evenodd" clip-rule="evenodd" d="M120.861 97.687L138.067 116.071C143.074 118.41 147.176 120.992 150.373 123.819C151.092 124.769 151.875 126.589 148.492 125.774C145.108 124.96 141.516 124.27 140.88 125.475C140.244 126.68 142.118 128.526 140.943 130.104C140.159 131.155 137.524 127.811 133.038 120.071L115.146 108.517L120.861 97.687ZM36.721 81.0489L50.0215 81.1035C39.8914 117.049 34.514 135.87 33.8893 137.565C32.4838 141.38 35.4581 147.19 36.73 150.312C32.5874 152.342 33.0288 144.824 27.8031 147.486C23.0334 149.917 19.405 154.32 13.8943 150.596C13.2168 150.138 12.4743 148.415 14.2682 147.067C18.7373 143.711 25.1776 137.837 26.0478 135.904C27.2344 133.267 30.7921 114.982 36.721 81.0489Z" fill="#B28B67"/>
<path fill-rule="evenodd" clip-rule="evenodd" d="M77.2501 39.7256L82.5024 38.739C90.7764 70.7716 133.288 92.6063 135.897 104.581C136.855 108.972 133.969 111.192 135.459 112.53L128.632 118.003C127.476 116.526 125.009 119.228 119.857 117.338C114.705 115.448 77.2501 77.655 77.2501 39.7256Z" fill="#236969"/>
<path fill-rule="evenodd" clip-rule="evenodd" d="M86.0852 43.9843C85.4797 86.393 107.864 97.2108 102.878 114.223C98.7605 128.272 59.3513 143.375 52.5318 129.604C49.7713 124.029 48.5189 117.287 48.3768 109.958C46.6339 115.589 45.2554 120.437 44.2414 124.501C42.4921 131.513 35.7105 132.627 35.7105 135.328L26.7758 132.627C27.3818 128.958 23.1698 127.171 24.2992 118.972C29.3593 82.2395 42.9551 55.613 65.0865 39.0929L65.3205 35.4275C65.4133 34.0063 66.5316 32.9348 67.8212 33.0313L84.356 34.2976C85.6464 34.3941 86.6197 35.6272 86.5301 37.0495C86.53 37.0503 86.53 37.0511 86.5278 37.0517L86.0852 43.9843Z" fill="#236969"/>
</svg>
