<svg width="19" height="22" viewBox="0 0 19 22" fill="none" xmlns="http://www.w3.org/2000/svg">
<path d="M15.8799 8.78888V5.8129C15.9158 4.30536 15.2324 2.84737 13.9793 1.75798C12.7263 0.668578 11.0055 0.0364807 9.19361 0C7.38171 0.0364807 5.66096 0.668578 4.40788 1.75798C3.15481 2.84737 2.47145 4.30536 2.50735 5.8129V8.78888H0V20.6094C0 20.9782 0.176111 21.3319 0.48959 21.5927C0.803069 21.8535 1.22824 22 1.67157 22H16.7157C17.159 22 17.5842 21.8535 17.8976 21.5927C18.2111 21.3319 18.3872 20.9782 18.3872 20.6094V8.78888H15.8799ZM10.0294 15.902V17.8281H8.35783V15.8394C7.95092 15.6653 7.62784 15.3806 7.44218 15.0326C7.25653 14.6846 7.21947 14.2943 7.33715 13.9264C7.45483 13.5585 7.72018 13.2352 8.08917 13.01C8.45815 12.7848 8.90859 12.6714 9.36574 12.6885C9.82289 12.7056 10.2593 12.8522 10.6024 13.1041C10.9456 13.3559 11.175 13.6978 11.2525 14.073C11.33 14.4482 11.2509 14.8342 11.0284 15.1669C10.806 15.4996 10.4535 15.759 10.0294 15.902ZM14.2083 8.78888H4.17891V5.8129C4.14288 4.67412 4.65009 3.56978 5.58973 2.74115C6.52936 1.91253 7.82502 1.427 9.19361 1.39065C10.5622 1.427 11.8579 1.91253 12.7975 2.74115C13.7371 3.56978 14.2443 4.67412 14.2083 5.8129V8.78888Z" fill="#22C7A9"/>
</svg>
